# xmcd
#
# Track frame offsets:
#	150
#	13773
#	31521
#	42744
#	59592
#	75840
#	93738
#	104286
#	118209
#	134157
#	147405
#	162603
#
# Disc length: 2358 seconds
# Revision: 1
# Processed by: cddbd v1.5.2PL0 Copyright (c) Steve Scherf et al.
# Submitted via: dBpowerAMP V12.0
#
DISCID=ad09340c
DTITLE=Eight Dollar Mountain - Tied to the Tracks
DYEAR=2014
DGENRE=Country
TTITLE0=These Old Blues
TTITLE1=Big Time (Country Dave)
TTITLE2=Old 77
TTITLE3=The Old High Way
TTITLE4=Hard Times Penitentiary
TTITLE5=Hobo Man
TTITLE6=Ambush
TTITLE7=Family Kitchen
TTITLE8=Tied to the Tracks
TTITLE9=Old Lost Feelings
TTITLE10=Picutres of Harlan
TTITLE11=Fly Like an Eagle
EXTD=
EXTT0=
EXTT1=
EXTT2=
EXTT3=
EXTT4=
EXTT5=
EXTT6=
EXTT7=
EXTT8=
EXTT9=
EXTT10=
EXTT11=
PLAYORDER=
